# xmcd
#
# Track frame offsets:
#	150
#	84904
#	121958
#
# Disc length: 2729 seconds
#
# Revision: 1
# Processed by: cddbd v1.5.2PL0 Copyright (c) Steve Scherf et al.
# Submitted via: audiograbber 1.83.01
#
DISCID=180aa703
DTITLE=Brian Grainger - White Kingdoms
DYEAR=2009
DGENRE=Electronic
TTITLE0=Plateau Phase
TTITLE1=White Kingdoms
TTITLE2=Shimmering Skull Raga
EXTD=
EXTT0=
EXTT1=
EXTT2=
PLAYORDER=
